<svg width="30" height="48" viewBox="0 0 30 48" fill="none" xmlns="http://www.w3.org/2000/svg">
<g clip-path="url(#clip0_9_2)">
<path d="M16.722 34.0399C18.8144 33.5639 20.7057 32.4457 22.1314 30.842C24.0794 28.4476 24.4888 25.0678 24.0882 22.0063C23.6876 18.9449 22.6389 15.9744 22.0432 12.9262C21.4475 9.87807 21.3589 6.56842 22.8437 3.81027C18.8553 5.54652 15.2171 7.99594 12.108 11.0382C8.99428 14.0964 6.71278 17.8989 5.4796 22.0855C4.68618 24.5494 4.63651 27.1925 5.33678 29.6846C6.01983 31.7599 7.66096 33.8274 9.81565 34.5003C11.8391 35.1279 14.7196 34.5656 16.722 34.0399Z" fill="#92C59C"/>
<path d="M5.98392 33.2044C5.1902 32.2837 4.58425 31.2167 4.20021 30.0634C3.43459 27.355 3.49357 24.4799 4.36959 21.8052C5.65469 17.4296 8.03713 13.4552 11.2906 10.2596C14.4999 7.11529 18.2566 4.58381 22.3758 2.78984C22.5959 2.69237 22.8409 2.66602 23.0767 2.71446C23.3125 2.76291 23.5273 2.88373 23.6912 3.06008C23.855 3.23643 23.9598 3.45952 23.9908 3.69824C24.0218 3.93695 23.9775 4.17939 23.8642 4.39175C22.7411 6.47035 22.4995 9.26892 23.1606 12.7062C23.4004 13.935 23.7214 15.1852 24.08 16.3955C24.5663 18.1896 24.9385 20.0127 25.1942 21.8538C25.6928 25.7961 24.9105 29.2363 22.9802 31.5719C21.4032 33.3751 19.3007 34.6387 16.9682 35.1849C13.6655 36.054 11.1937 36.2071 9.41896 35.6601C8.06517 35.1821 6.87428 34.3307 5.98392 33.2044ZM20.7933 6.1256C17.8943 7.64138 15.2385 9.58245 12.914 11.8843C9.94794 14.7923 7.77026 18.4069 6.58577 22.3882C5.84918 24.6282 5.79652 27.0369 6.43454 29.3069C6.69285 30.2297 7.15953 31.0809 7.79863 31.795C8.43773 32.509 9.23219 33.0668 10.1208 33.4254C11.4557 33.8363 13.5673 33.6686 16.3756 32.9397C18.2247 32.5129 19.8975 31.5268 21.1663 30.1155C23.2133 27.6376 23.114 24.0715 22.8733 22.1636C22.6087 20.4144 22.2339 18.6836 21.751 16.9817C21.4287 15.739 21.0903 14.4549 20.8532 13.1649C20.3566 10.8467 20.3362 8.45185 20.7933 6.1256Z" fill="#92C59C"/>
<path d="M1.26439 44.1423C1.26439 44.1423 1.26439 44.1423 1.23322 44.0984C1.14062 43.9786 1.07261 43.8417 1.0331 43.6956C0.993592 43.5494 0.983362 43.3969 1.00301 43.2468C1.02265 43.0966 1.07179 42.9519 1.14757 42.8208C1.22336 42.6897 1.32431 42.5749 1.44462 42.483C5.74036 39.1919 9.04431 34.779 10.9925 29.7303C11.9427 27.0606 12.7039 24.3274 13.2704 21.5508C13.6747 19.7982 14.0892 17.9856 14.6049 16.2133C16.287 10.3713 18.8005 6.32106 22.2796 3.81521C22.4017 3.72343 22.5409 3.65693 22.689 3.6196C22.8371 3.58226 22.9912 3.57483 23.1422 3.59776C23.2933 3.62069 23.4382 3.67351 23.5686 3.75312C23.6989 3.83274 23.8121 3.93755 23.9015 4.06144C23.9909 4.18532 24.0546 4.32579 24.089 4.47462C24.1235 4.62344 24.1279 4.77763 24.102 4.92818C24.0761 5.07873 24.0205 5.2226 23.9383 5.35138C23.8562 5.48017 23.7491 5.59127 23.6235 5.67819C20.5754 7.87111 18.353 11.5231 16.8084 16.8713C16.3179 18.5862 15.9085 20.3688 15.5231 22.0551C14.9315 24.9368 14.1349 27.7726 13.1393 30.5408C11.0471 35.9899 7.4828 40.7511 2.84371 44.2936C2.61225 44.4781 2.31814 44.5655 2.02346 44.5373C1.72879 44.509 1.45661 44.3674 1.26439 44.1423Z" fill="#5C707E"/>
<path d="M13.229 22.1611C13.1253 22.0405 13.0486 21.8992 13.0039 21.7466C12.9591 21.594 12.9475 21.4337 12.9696 21.2762C13.1333 19.8347 12.9443 18.3751 12.4189 17.0228C11.8935 15.6705 11.0475 14.4662 9.95348 13.5134C9.72091 13.3154 9.57649 13.0333 9.55198 12.7289C9.52748 12.4245 9.6249 12.1228 9.82281 11.8902C10.0207 11.6577 10.3029 11.5132 10.6073 11.4887C10.9117 11.4642 11.2134 11.5617 11.4459 11.7596C13.5496 13.567 14.905 16.0929 15.2479 18.8451C17.4387 17.1017 19.9464 15.799 22.6324 15.0088C22.7774 14.9665 22.9293 14.9531 23.0794 14.9694C23.2296 14.9857 23.375 15.0315 23.5075 15.104C23.6399 15.1766 23.7568 15.2745 23.8514 15.3922C23.9461 15.51 24.0166 15.6452 24.0589 15.7901C24.1013 15.9351 24.1147 16.087 24.0984 16.2371C24.082 16.3873 24.0363 16.5327 23.9637 16.6652C23.8912 16.7977 23.7932 16.9145 23.6755 17.0091C23.5578 17.1038 23.4226 17.1743 23.2776 17.2166C20.1145 18.1484 17.2416 19.8724 14.9311 22.2251C14.7615 22.397 14.5421 22.511 14.304 22.5511C14.0659 22.5912 13.8213 22.5552 13.6048 22.4484C13.4612 22.3793 13.3332 22.2816 13.229 22.1611Z" fill="#5C707E"/>
<path d="M11.3965 31.3109C11.2902 31.1878 11.212 31.0429 11.1674 30.8864C10.7042 29.2703 9.90612 27.7698 8.82502 26.4823C7.74394 25.1949 6.40403 24.1493 4.89239 23.4136C4.74897 23.3534 4.61929 23.2646 4.51119 23.1528C4.40309 23.0409 4.31884 22.9082 4.26354 22.7629C4.20824 22.6175 4.18304 22.4623 4.18948 22.3069C4.19592 22.1515 4.23386 21.999 4.30099 21.8587C4.36813 21.7183 4.46306 21.5931 4.58004 21.4906C4.69701 21.388 4.8336 21.3103 4.98151 21.2621C5.12942 21.214 5.28557 21.1963 5.4405 21.2103C5.59543 21.2243 5.74591 21.2696 5.88281 21.3435C9.02043 22.8637 11.4951 25.477 12.8422 28.6928C16.2072 26.4093 20.2496 25.3402 24.3035 25.6615C24.5754 25.7234 24.8157 25.8815 24.9802 26.1066C25.1447 26.3316 25.2224 26.6086 25.1989 26.8864C25.1754 27.1642 25.0524 27.4242 24.8524 27.6185C24.6524 27.8127 24.389 27.9282 24.1106 27.9436C20.0911 27.6251 16.1063 28.8895 13.0058 31.4673C12.8617 31.5847 12.691 31.6651 12.5087 31.7015C12.3264 31.7379 12.1379 31.7292 11.9597 31.6762C11.7384 31.6164 11.5414 31.4886 11.3965 31.3109Z" fill="#5C707E"/>
</g>
<defs>
<clipPath id="clip0_9_2">
<rect width="44.7724" height="21.6597" fill="white" transform="translate(29.2726 3.75525) rotate(99.5962)"/>
</clipPath>
</defs>
</svg>
